<?xml version="1.0" encoding="iso-8859-1"?>
<!-- Generator: Adobe Illustrator 19.0.0, SVG Export Plug-In . SVG Version: 6.00 Build 0)  -->
<!-- License: CC0. Made by SVG Repo: https://www.svgrepo.com/svg/125675/tree -->
<svg version="1.1" id="Layer_1" xmlns="http://www.w3.org/2000/svg" xmlns:xlink="http://www.w3.org/1999/xlink" x="0px" y="0px"
	 viewBox="0 0 474.085 474.085" style="enable-background:new 0 0 474.085 474.085;" xml:space="preserve">
<circle style="fill:#ACDDDE;" cx="237.042" cy="236.966" r="236.966"/>
<path style="fill:#9ACA42;" d="M237.016,474.085c100.781,0,186.811-62.944,221.074-151.635c-61.87-37.302-142.322-55-230.283-55
	c-80.886,0-155.414,14.982-214.994,46.39C44.708,407.044,133.006,474.085,237.016,474.085z"/>
<path style="fill:#9F7235;" d="M239.725,181.075c-6.267,0-11.345,5.078-11.345,11.341v197.303c0,6.264,5.078,11.349,11.345,11.349
	c6.267,0,11.341-5.085,11.341-11.349V192.416C251.066,186.156,245.993,181.075,239.725,181.075z"/>
<path style="fill:#B28D5D;" d="M239.725,181.075c-6.267,0-11.345,5.078-11.345,11.341v197.303c0,6.264,5.078,11.349,11.345,11.349
	V181.075z"/>
<path style="fill:#15AA63;" d="M350.642,302.207c-6.297-10.327-98.708-122.37-98.708-122.37c-7.057-13.298-18.499-13.298-25.564,0
	c0,0-92.167,110.565-98.704,122.37c-6.533,11.787-6.133,36.737,0,48.074c10.993,20.351,206.594,21.377,222.975,0
	C358.578,339.924,356.943,312.534,350.642,302.207z"/>
<path style="fill:#1EAE64;" d="M323.365,233.265l-74.551-108.593c-5.336-10.035-13.979-10.035-19.315,0l-74.547,108.593
	c-5.332,10.024-7.296,26.278-1.964,36.314h172.338C330.65,259.543,328.701,243.285,323.365,233.265z"/>
<path style="fill:#28B467;" d="M179.344,194.066c-3.794-7.128-3.794-18.675,0-25.803l52.953-99.594c3.787-7.136,9.923-7.136,13.71,0
	l52.961,99.598c3.794,7.124,3.794,18.671,0,25.803H179.344V194.066z"/>
</svg>
